# xmcd
#
# Track frame offsets: 
#        150
#        17246
#        38611
#        60204
#
# Disc length: 1083 seconds
#
# Revision: 0
# Processed by: cddbd v1.5.2PL0 Copyright (c) Steve Scherf et al.
# Submitted via: ExactAudioCopyFreeDBPlugin 1.0
#
DISCID=23043904
DTITLE=Dirty Revival - The May Fourth Edition
DYEAR=2014
DGENRE=R&B
TTITLE0=Here I Am
TTITLE1=Baby Makin' Factory
TTITLE2=(You Got) Problems
TTITLE3=Callin' Me
EXTD=
EXTT0=
EXTT1=
EXTT2=
EXTT3=
PLAYORDER=
